HIERARCHY
ROOT Hips
{
  OFFSET 7.504 22.986 -267.075
  CHANNELS 6 Xposition Yposition Zposition Zrotation Xrotation Yrotation
  JOINT LeftUpLeg
  {
    OFFSET 7.871 -7.412 2.099
    CHANNELS 6 Xposition Yposition Zposition Zrotation Xrotation Yrotation
    JOINT LeftLeg
    {
      OFFSET -0.000 -49.055 0.000
      CHANNELS 6 Xposition Yposition Zposition Zrotation Xrotation Yrotation
      JOINT LeftFoot
      {
        OFFSET -0.000 -37.471 -0.000
        CHANNELS 6 Xposition Yposition Zposition Zrotation Xrotation Yrotation
        End Site
        {
          OFFSET 0.000 -10.809 6.240
        }
      }
    }
  }
  JOINT RightUpLeg
  {
    OFFSET -7.706 -7.557 2.004
    CHANNELS 6 Xposition Yposition Zposition Zrotation Xrotation Yrotation
    JOINT RightLeg
    {
      OFFSET -0.000 -49.097 0.000
      CHANNELS 6 Xposition Yposition Zposition Zrotation Xrotation Yrotation
      JOINT RightFoot
      {
        OFFSET -0.000 -41.425 -0.000
        CHANNELS 6 Xposition Yposition Zposition Zrotation Xrotation Yrotation
        End Site
        {
          OFFSET 0.000 -9.427 5.442
        }
      }
    }
  }
  JOINT Spine
  {
    OFFSET 0.000 5.999 -5.999
    CHANNELS 6 Xposition Yposition Zposition Zrotation Xrotation Yrotation
    JOINT LeftShoulder
    {
      OFFSET -0.000 37.329 0.000
      CHANNELS 6 Xposition Yposition Zposition Zrotation Xrotation Yrotation
      JOINT LeftArm
      {
        OFFSET 21.522 0.000 -0.000
        CHANNELS 6 Xposition Yposition Zposition Zrotation Xrotation Yrotation
        JOINT LeftForeArm
        {
          OFFSET 27.636 0.000 0.000
          CHANNELS 6 Xposition Yposition Zposition Zrotation Xrotation Yrotation
          JOINT LeftHand
          {
            OFFSET 26.353 0.000 -0.000
            CHANNELS 6 Xposition Yposition Zposition Zrotation Xrotation Yrotation
            JOINT LeftHandThumb1
            {
            OFFSET 4.970 -0.620 3.390
            CHANNELS 6 Xposition Yposition Zposition Zrotation Xrotation Yrotation
              JOINT LeftHandThumb2
              {
              OFFSET 2.150 -0.000 0.000
              CHANNELS 6 Xposition Yposition Zposition Zrotation Xrotation Yrotation
                JOINT LeftHandThumb3
                {
                OFFSET 2.200 -0.000 0.000
                CHANNELS 6 Xposition Yposition Zposition Zrotation Xrotation Yrotation
                  JOINT LeftHandThumb4
                  {
                  OFFSET 1.700 -0.000 0.000
                  CHANNELS 6 Xposition Yposition Zposition Zrotation Xrotation Yrotation
                  }
                }
              }
            }
            JOINT LeftHandIndex1
            {
            OFFSET 8.730 0.680 2.070
            CHANNELS 6 Xposition Yposition Zposition Zrotation Xrotation Yrotation
              JOINT LeftHandIndex2
              {
              OFFSET 2.670 -0.000 0.000
              CHANNELS 6 Xposition Yposition Zposition Zrotation Xrotation Yrotation
                JOINT LeftHandIndex3
                {
                OFFSET 2.130 -0.000 0.000
                CHANNELS 6 Xposition Yposition Zposition Zrotation Xrotation Yrotation
                  JOINT LeftHandIndex4
                  {
                  OFFSET 1.800 -0.000 0.000
                  CHANNELS 6 Xposition Yposition Zposition Zrotation Xrotation Yrotation
                  }
                }
              }
            }
            JOINT LeftHandMiddle1
            {
            OFFSET 9.220 0.670 0.550
            CHANNELS 6 Xposition Yposition Zposition Zrotation Xrotation Yrotation
              JOINT LeftHandMiddle2
              {
              OFFSET 2.660 -0.000 0.000
              CHANNELS 6 Xposition Yposition Zposition Zrotation Xrotation Yrotation
                JOINT LeftHandMiddle3
                {
                OFFSET 2.280 -0.000 0.000
                CHANNELS 6 Xposition Yposition Zposition Zrotation Xrotation Yrotation
                  JOINT LeftHandMiddle4
                  {
                  OFFSET 1.500 -0.000 0.000
                  CHANNELS 6 Xposition Yposition Zposition Zrotation Xrotation Yrotation
                  }
                }
              }
            }
            JOINT LeftHandRing1
            {
            OFFSET 9.250 0.670 -1.130
            CHANNELS 6 Xposition Yposition Zposition Zrotation Xrotation Yrotation
              JOINT LeftHandRing2
              {
              OFFSET 2.470 -0.000 0.000
              CHANNELS 6 Xposition Yposition Zposition Zrotation Xrotation Yrotation
                JOINT LeftHandRing3
                {
                OFFSET 2.210 -0.000 0.000
                CHANNELS 6 Xposition Yposition Zposition Zrotation Xrotation Yrotation
                  JOINT LeftHandRing4
                  {
                  OFFSET 1.800 -0.000 0.000
                  CHANNELS 6 Xposition Yposition Zposition Zrotation Xrotation Yrotation
                  }
                }
              }
            }
            JOINT LeftHandPinky1
            {
            OFFSET 9.350 0.660 -2.720
            CHANNELS 6 Xposition Yposition Zposition Zrotation Xrotation Yrotation
              JOINT LeftHandPinky2
              {
              OFFSET 1.630 -0.000 0.000
              CHANNELS 6 Xposition Yposition Zposition Zrotation Xrotation Yrotation
                JOINT LeftHandPinky3
                {
                OFFSET 1.710 -0.000 0.000
                CHANNELS 6 Xposition Yposition Zposition Zrotation Xrotation Yrotation
                  JOINT LeftHandPinky4
                  {
                  OFFSET 1.800 -0.000 0.000
                  CHANNELS 6 Xposition Yposition Zposition Zrotation Xrotation Yrotation
                  }
                }
              }
            }
          }
        }
      }
    }
    JOINT RightShoulder
    {
      OFFSET -0.000 37.329 0.000
      CHANNELS 6 Xposition Yposition Zposition Zrotation Xrotation Yrotation
      JOINT RightArm
      {
        OFFSET -21.063 0.000 -0.000
        CHANNELS 6 Xposition Yposition Zposition Zrotation Xrotation Yrotation
        JOINT RightForeArm
        {
          OFFSET -28.695 0.000 0.000
          CHANNELS 6 Xposition Yposition Zposition Zrotation Xrotation Yrotation
          JOINT RightHand
          {
            OFFSET -24.477 0.000 -0.000
            CHANNELS 6 Xposition Yposition Zposition Zrotation Xrotation Yrotation
            JOINT RightHandThumb1
            {
            OFFSET -4.970 -0.620 3.390
            CHANNELS 6 Xposition Yposition Zposition Zrotation Xrotation Yrotation
              JOINT RightHandThumb2
              {
              OFFSET -2.150 0.000 0.000
              CHANNELS 6 Xposition Yposition Zposition Zrotation Xrotation Yrotation
                JOINT RightHandThumb3
                {
                OFFSET -2.200 0.000 0.000
                CHANNELS 6 Xposition Yposition Zposition Zrotation Xrotation Yrotation
                  JOINT RightHandThumb4
                  {
                  OFFSET -1.700 0.000 0.000
                  CHANNELS 6 Xposition Yposition Zposition Zrotation Xrotation Yrotation
                  }
                }
              }
            }
            JOINT RightHandIndex1
            {
            OFFSET -8.730 0.680 2.070
            CHANNELS 6 Xposition Yposition Zposition Zrotation Xrotation Yrotation
              JOINT RightHandIndex2
              {
              OFFSET -2.670 0.000 0.000
              CHANNELS 6 Xposition Yposition Zposition Zrotation Xrotation Yrotation
                JOINT RightHandIndex3
                {
                OFFSET -2.130 0.000 0.000
                CHANNELS 6 Xposition Yposition Zposition Zrotation Xrotation Yrotation
                  JOINT RightHandIndex4
                  {
                  OFFSET -1.800 0.000 0.000
                  CHANNELS 6 Xposition Yposition Zposition Zrotation Xrotation Yrotation
                  }
                }
              }
            }
            JOINT RightHandMiddle1
            {
            OFFSET -9.220 0.670 0.550
            CHANNELS 6 Xposition Yposition Zposition Zrotation Xrotation Yrotation
              JOINT RightHandMiddle2
              {
              OFFSET -2.660 0.000 0.000
              CHANNELS 6 Xposition Yposition Zposition Zrotation Xrotation Yrotation
                JOINT RightHandMiddle3
                {
                OFFSET -2.280 0.000 0.000
                CHANNELS 6 Xposition Yposition Zposition Zrotation Xrotation Yrotation
                  JOINT RightHandMiddle4
                  {
                  OFFSET -1.500 0.000 0.000
                  CHANNELS 6 Xposition Yposition Zposition Zrotation Xrotation Yrotation
                  }
                }
              }
            }
            JOINT RightHandRing1
            {
            OFFSET -9.250 0.670 -1.130
            CHANNELS 6 Xposition Yposition Zposition Zrotation Xrotation Yrotation
              JOINT RightHandRing2
              {
              OFFSET -2.470 0.000 0.000
              CHANNELS 6 Xposition Yposition Zposition Zrotation Xrotation Yrotation
                JOINT RightHandRing3
                {
                OFFSET -2.210 0.000 0.000
                CHANNELS 6 Xposition Yposition Zposition Zrotation Xrotation Yrotation
                  JOINT RightHandRing4
                  {
                  OFFSET -1.800 0.000 0.000
                  CHANNELS 6 Xposition Yposition Zposition Zrotation Xrotation Yrotation
                  }
                }
              }
            }
            JOINT RightHandPinky1
            {
            OFFSET -9.350 0.660 -2.720
            CHANNELS 6 Xposition Yposition Zposition Zrotation Xrotation Yrotation
              JOINT RightHandPinky2
              {
              OFFSET -1.630 0.000 0.000
              CHANNELS 6 Xposition Yposition Zposition Zrotation Xrotation Yrotation
                JOINT RightHandPinky3
                {
                OFFSET -1.710 0.000 0.000
                CHANNELS 6 Xposition Yposition Zposition Zrotation Xrotation Yrotation
                  JOINT RightHandPinky4
                  {
                  OFFSET -1.800 0.000 0.000
                  CHANNELS 6 Xposition Yposition Zposition Zrotation Xrotation Yrotation
                  }
                }
              }
            }
          }
        }
      }
    }
    JOINT Neck
    {
      OFFSET -0.000 37.329 0.000
      CHANNELS 6 Xposition Yposition Zposition Zrotation Xrotation Yrotation
      JOINT Head
      {
        OFFSET -0.000 18.329 -0.000
        CHANNELS 6 Xposition Yposition Zposition Zrotation Xrotation Yrotation
        End Site
        {
          OFFSET -0.000 0.073 -0.000
        }
      }
    }
  }
}
MOTION
Frames:	4
Frame Time:	0.0333333
13.4755 22.5133 -273.704 -1.58208 -2.44771 -11.4808 7.46977 -7.50772 2.16656 4.0298 9.51142 -4.98097 0 -49.0927 0 -5.85504 -6.80074 -0.695719 5.96046e-06 -36.8302 0 14.4631 -11.0345 11.2081 -7.54125 -8.01324 0.932503 -2.57803 5.09954 -4.29425 0 -47.8405 0 5.63876 1.81005 -0.178677 -5.96046e-06 -38.7849 -4.76837e-05 0.820895 -14.1139 0.65746 -2.98023e-06 6.11856 -6.11851 -0.565646 -2.96466 1.48623 -8.9407e-06 37.3279 0 -33.6162 1.50478e-05 -6.35211 20.1142 1.19209e-05 4.76837e-05 -31.9532 47.0442 -8.73127 24.3862 -1.19209e-05 0 2.10498e-05 8.53774e-06 -45.8453 24.6039 0 -1.19209e-05 3.28808 0.410717 13.2523 0.0062 0.0497 0.0339 0 0 0 0 0.0215 0 0 0 0 0 0.022 0 0 0 0 0 0.017 0 0 0 0 -0.0068 0.0873 0.0207 0 0 0 0 0.0267 0 0 0 0 0 0.0213 0 0 0 0 0 0.018 0 0 0 0 -0.0067 0.0922 0.0055 0 0 0 0 0.0266 0 0 0 0 0 0.0228 0 0 0 0 0 0.015 0 0 0 0 -0.0067 0.0925 -0.0113 0 0 0 0 0.0247 0 0 0 0 0 0.0221 0 0 0 0 0 0.018 0 0 0 0 -0.0066 0.0935 -0.0272 0 0 0 0 0.0163 0 0 0 0 0 0.0171 0 0 0 0 0 0.018 0 0 0 0 -8.9407e-06 37.3279 0 35.0182 -3.4151e-06 5.87315 -21.7479 0 0 40.7883 13.511 25.8131 -25.3032 1.49012e-06 4.76837e-05 9.54836e-06 2.56132e-06 21.7166 -24.5018 -5.96046e-06 -2.38419e-05 -18.8667 -0.365096 -4.65347 -0.0062 0.0497 0.0339 45 0 0 0 0.0215 0 0 -45 0 0 0.022 0 0 -45 0 0 0.017 0 0 0 0 0.0068 0.0873 0.0207 45 0 0 0 0.0267 0 80 0 0 0 0.0213 0 90 0 0 0 0.018 0 0 0 0 0.0067 0.0922 0.0055 45 0 0 0 0.0266 0 80 0 0 0 0.0228 0 90 0 0 0 0.015 0 0 0 0 0.0067 0.0925 -0.0113 45 0 0 0 0.0247 0 80 0 0 0 0.0221 0 90 0 0 0 0.018 0 0 0 0 0.0066 0.0935 -0.0272 45 0 0 0 0.0163 0 80 0 0 0 0.0171 0 90 0 0 0 0.018 0 0 0 0 -8.9407e-06 37.3279 0 9.86007 37.272 -6.00879 2.98023e-06 17.137 2.38419e-05 9.8184e-06 -1.53679e-05 0 
13.4755 22.5133 -273.704 -1.58208 -2.44771 -11.4808 7.46977 -7.50772 2.16656 4.0298 9.51142 -4.98097 0 -49.0927 0 -5.85504 -6.80074 -0.695719 5.96046e-06 -36.8302 0 14.4631 -11.0345 11.2081 -7.54125 -8.01324 0.932503 -2.57803 5.09954 -4.29425 0 -47.8405 0 5.63876 1.81005 -0.178677 -5.96046e-06 -38.7849 -4.76837e-05 0.820895 -14.1139 0.65746 -2.98023e-06 6.11856 -6.11851 -0.565646 -2.96466 1.48623 -8.9407e-06 37.3279 0 -33.6162 1.50478e-05 -6.35211 20.1142 1.19209e-05 4.76837e-05 -31.9532 47.0442 -8.73127 24.3862 -1.19209e-05 0 2.10498e-05 8.53774e-06 -45.8453 24.6039 0 -1.19209e-05 3.28808 0.410717 13.2523 0.0062 0.0497 0.0339 0 0 0 0 0.0215 0 0 0 0 0 0.022 0 0 0 0 0 0.017 0 0 0 0 -0.0068 0.0873 0.0207 0 0 0 0 0.0267 0 0 0 0 0 0.0213 0 0 0 0 0 0.018 0 0 0 0 -0.0067 0.0922 0.0055 0 0 0 0 0.0266 0 0 0 0 0 0.0228 0 0 0 0 0 0.015 0 0 0 0 -0.0067 0.0925 -0.0113 0 0 0 0 0.0247 0 0 0 0 0 0.0221 0 0 0 0 0 0.018 0 0 0 0 -0.0066 0.0935 -0.0272 0 0 0 0 0.0163 0 0 0 0 0 0.0171 0 0 0 0 0 0.018 0 0 0 0 -8.9407e-06 37.3279 0 35.0182 -3.4151e-06 5.87315 -21.7479 0 0 40.7883 13.511 25.8131 -25.3032 1.49012e-06 4.76837e-05 9.54836e-06 2.56132e-06 21.7166 -24.5018 -5.96046e-06 -2.38419e-05 -18.8667 -0.365096 -4.65347 -0.0062 0.0497 0.0339 45 0 0 0 0.0215 0 0 -45 0 0 0.022 0 0 -45 0 0 0.017 0 0 0 0 0.0068 0.0873 0.0207 45 0 0 0 0.0267 0 80 0 0 0 0.0213 0 90 0 0 0 0.018 0 0 0 0 0.0067 0.0922 0.0055 45 0 0 0 0.0266 0 80 0 0 0 0.0228 0 90 0 0 0 0.015 0 0 0 0 0.0067 0.0925 -0.0113 45 0 0 0 0.0247 0 80 0 0 0 0.0221 0 90 0 0 0 0.018 0 0 0 0 0.0066 0.0935 -0.0272 45 0 0 0 0.0163 0 80 0 0 0 0.0171 0 90 0 0 0 0.018 0 0 0 0 -8.9407e-06 37.3279 0 9.86007 37.272 -6.00879 2.98023e-06 17.137 2.38419e-05 9.8184e-06 -1.53679e-05 0 
13.4965 22.4877 -273.838 -1.52043 -2.12174 -11.5709 7.51745 -7.50891 2.10879 3.97055 9.04493 -4.5952 5.96046e-06 -48.9195 4.76837e-05 -5.78659 -6.72602 -0.680017 0 -36.9411 -2.38419e-05 14.4188 -11.133 11.1966 -7.5944 -8.00107 0.967526 -2.51538 4.65354 -3.96081 -5.96046e-06 -47.7676 0 5.57476 1.79758 -0.175421 1.19209e-05 -38.8362 -2.38419e-05 0.658748 -14.0176 0.530403 0 6.11229 -6.11227 -0.575548 -2.98566 1.55902 -5.96046e-06 37.3279 4.76837e-05 -33.4386 1.40873e-05 -5.93233 20.0387 1.78814e-05 0 -34.7727 42.2553 -5.74837 24.4944 -2.38419e-05 3.57628e-05 2.5874e-06 3.41509e-06 -37.1489 25.3142 0 0 2.0371 0.26576 12.5321 0.0062 0.0497 0.0339 0 0 0 0 0.0215 0 0 0 0 0 0.022 0 0 0 0 0 0.017 0 0 0 0 -0.0068 0.0873 0.0207 0 0 0 0 0.0267 0 0 0 0 0 0.0213 0 0 0 0 0 0.018 0 0 0 0 -0.0067 0.0922 0.0055 0 0 0 0 0.0266 0 0 0 0 0 0.0228 0 0 0 0 0 0.015 0 0 0 0 -0.0067 0.0925 -0.0113 0 0 0 0 0.0247 0 0 0 0 0 0.0221 0 0 0 0 0 0.018 0 0 0 0 -0.0066 0.0935 -0.0272 0 0 0 0 0.0163 0 0 0 0 0 0.0171 0 0 0 0 0 0.018 0 0 0 0 -5.96046e-06 37.3279 4.76837e-05 34.9026 -2.56132e-06 5.46497 -21.7464 5.96046e-06 2.38419e-05 49.7801 -6.67626 22.7499 -25.4782 -1.19209e-05 0 5.86281 1.78972 16.9172 -24.7168 0 0 -14.6682 -0.217517 -4.40576 -0.0062 0.0497 0.0339 45 0 0 0 0.0215 0 0 -45 0 0 0.022 0 0 -45 0 0 0.017 0 0 0 0 0.0068 0.0873 0.0207 45 0 0 0 0.0267 0 80 0 0 0 0.0213 0 90 0 0 0 0.018 0 0 0 0 0.0067 0.0922 0.0055 45 0 0 0 0.0266 0 80 0 0 0 0.0228 0 90 0 0 0 0.015 0 0 0 0 0.0067 0.0925 -0.0113 45 0 0 0 0.0247 0 80 0 0 0 0.0221 0 90 0 0 0 0.018 0 0 0 0 0.0066 0.0935 -0.0272 45 0 0 0 0.0163 0 80 0 0 0 0.0171 0 90 0 0 0 0.018 0 0 0 0 -5.96046e-06 37.3279 4.76837e-05 10.1354 37.824 -6.25609 8.9407e-06 17.2808 9.53674e-05 1.19528e-05 -2.21981e-05 8.53774e-07 
13.51 22.4829 -273.977 -1.46709 -1.80325 -11.6557 7.55944 -7.5073 2.06273 3.94805 8.57727 -4.26858 0 -48.7727 2.38419e-05 -5.76038 -6.62985 -0.667281 5.96046e-06 -37.047 -4.76837e-05 14.3073 -11.1599 11.1148 -7.64016 -7.99658 0.999784 -2.44681 4.21691 -3.68385 0 -47.6984 9.53674e-05 5.51954 1.78422 -0.172386 -5.96046e-06 -38.8956 -2.38419e-05 0.496789 -13.9418 0.403187 2.98023e-06 6.10262 -6.10263 -0.584406 -2.96841 1.6417 -5.96046e-06 37.3279 2.38419e-05 -33.2735 1.48343e-05 -5.5125 19.9715 -5.96046e-06 -4.76837e-05 -36.6947 35.8165 -3.11091 24.7507 3.57628e-05 4.76837e-05 1.04763e-06 -5.12264e-06 -29.2212 25.9879 0 2.38419e-05 0.508964 0.136821 12.0113 0.0062 0.0497 0.0339 0 0 0 0 0.0215 0 0 0 0 0 0.022 0 0 0 0 0 0.017 0 0 0 0 -0.0068 0.0873 0.0207 0 0 0 0 0.0267 0 0 0 0 0 0.0213 0 0 0 0 0 0.018 0 0 0 0 -0.0067 0.0922 0.0055 0 0 0 0 0.0266 0 0 0 0 0 0.0228 0 0 0 0 0 0.015 0 0 0 0 -0.0067 0.0925 -0.0113 0 0 0 0 0.0247 0 0 0 0 0 0.0221 0 0 0 0 0 0.018 0 0 0 0 -0.0066 0.0935 -0.0272 0 0 0 0 0.0163 0 0 0 0 0 0.0171 0 0 0 0 0 0.018 0 0 0 0 -5.96046e-06 37.3279 2.38419e-05 34.8189 -2.56132e-06 5.0605 -21.75 -1.19209e-05 0 48.8077 -6.48479 20.177 -25.739 1.19209e-05 2.38419e-05 5.41701 1.23883 12.8436 -24.0868 -5.96046e-06 -2.38419e-05 -11.243 -0.436628 0.178265 -0.0062 0.0497 0.0339 32.6529 0 0 0 0.0215 0 0 -32.6529 0 0 0.022 0 0 -32.6529 0 0 0.017 0 0 0 0 0.0068 0.0873 0.0207 32.6529 0 0 0 0.0267 0 58.0496 0 0 0 0.0213 0 65.3058 0 0 0 0.018 0 0 0 0 0.0067 0.0922 0.0055 32.6529 0 0 0 0.0266 0 58.0496 0 0 0 0.0228 0 65.3058 0 0 0 0.015 0 0 0 0 0.0067 0.0925 -0.0113 32.6529 0 0 0 0.0247 0 58.0496 0 0 0 0.0221 0 65.3058 0 0 0 0.018 0 0 0 0 0.0066 0.0935 -0.0272 32.6529 0 0 0 0.0163 0 58.0496 0 0 0 0.0171 0 65.3058 0 0 0 0.018 0 0 0 0 -5.96046e-06 37.3279 2.38419e-05 10.3472 38.105 -6.4285 0 17.3565 0 1.10991e-05 -6.83019e-06 8.53774e-07 
